<?xml version="1.0" encoding="UTF-8" standalone="no"?>
<!-- Created with Inkscape (http://www.inkscape.org/) -->

<svg
   width="210mm"
   height="297mm"
   viewBox="0 0 210 297"
   version="1.1"
   id="svg5"
   inkscape:version="1.2.2 (b0a8486, 2022-12-01)"
   sodipodi:docname="blocks.svg"
   xmlns:inkscape="http://www.inkscape.org/namespaces/inkscape"
   xmlns:sodipodi="http://sodipodi.sourceforge.net/DTD/sodipodi-0.dtd"
   xmlns="http://www.w3.org/2000/svg"
   xmlns:svg="http://www.w3.org/2000/svg">
  <sodipodi:namedview
     id="namedview7"
     pagecolor="#ffffff"
     bordercolor="#000000"
     borderopacity="0.25"
     inkscape:showpageshadow="2"
     inkscape:pageopacity="0.0"
     inkscape:pagecheckerboard="0"
     inkscape:deskcolor="#d1d1d1"
     inkscape:document-units="mm"
     showgrid="true"
     inkscape:zoom="2.1553698"
     inkscape:cx="277.21461"
     inkscape:cy="946.24134"
     inkscape:window-width="1920"
     inkscape:window-height="1016"
     inkscape:window-x="0"
     inkscape:window-y="27"
     inkscape:window-maximized="1"
     inkscape:current-layer="layer1">
    <inkscape:grid
       type="xygrid"
       id="grid900"
       spacingx="1.3229167"
       spacingy="1.3229167"
       snapvisiblegridlinesonly="false"
       originx="0"
       originy="0"
       units="mm" />
  </sodipodi:namedview>
  <defs
     id="defs2">
    <inkscape:path-effect
       effect="clone_original"
       linkeditem=""
       id="path-effect467"
       is_visible="true"
       lpeversion="1"
       method="d"
       attributes=""
       css_properties=""
       allow_transforms="true" />
    <inkscape:path-effect
       effect="fillet_chamfer"
       id="path-effect385"
       is_visible="true"
       lpeversion="1"
       nodesatellites_param="F,0,0,1,0,0,0,1 @ F,0,0,1,0,0,0,1 @ F,0,0,1,0,0,0,1 @ F,0,0,1,0,0,0,1 @ F,0,0,1,0,0,0,1 @ F,0,0,1,0,0,0,1"
       unit="px"
       method="auto"
       mode="F"
       radius="0"
       chamfer_steps="1"
       flexible="false"
       use_knot_distance="true"
       apply_no_radius="true"
       apply_with_radius="true"
       only_selected="false"
       hide_knots="false" />
    <inkscape:path-effect
       effect="fillet_chamfer"
       id="path-effect379"
       is_visible="true"
       lpeversion="1"
       nodesatellites_param="F,0,0,1,0,0,0,1 @ F,0,0,1,0,0,0,1 @ F,0,0,1,0,0,0,1 @ F,0,0,1,0,0,0,1 @ F,0,0,1,0,0,0,1 @ F,0,0,1,0,0,0,1"
       unit="px"
       method="auto"
       mode="F"
       radius="0"
       chamfer_steps="1"
       flexible="false"
       use_knot_distance="true"
       apply_no_radius="true"
       apply_with_radius="true"
       only_selected="false"
       hide_knots="false" />
    <inkscape:path-effect
       effect="fillet_chamfer"
       id="path-effect1389"
       is_visible="true"
       lpeversion="1"
       nodesatellites_param="F,0,0,1,0,1.3229167,0,1 @ F,0,0,1,0,1.3229167,0,1 @ F,0,0,1,0,1.3229167,0,1 @ F,0,0,1,0,1.3229167,0,1 @ F,0,0,1,0,1.3229167,0,1 @ F,0,0,1,0,1.3229167,0,1 @ F,0,0,1,0,1.3229167,0,1 @ F,0,0,1,0,1.3229167,0,1 @ F,0,0,1,0,1.3229167,0,1 @ F,0,0,1,0,1.3229167,0,1 @ F,0,0,1,0,1.3229167,0,1 @ F,0,0,1,0,1.3229167,0,1"
       unit="px"
       method="auto"
       mode="F"
       radius="5"
       chamfer_steps="1"
       flexible="false"
       use_knot_distance="true"
       apply_no_radius="true"
       apply_with_radius="true"
       only_selected="false"
       hide_knots="false" />
    <inkscape:path-effect
       effect="fillet_chamfer"
       id="path-effect1297"
       is_visible="true"
       lpeversion="1"
       nodesatellites_param="F,0,0,1,0,1.3229167,0,1 @ F,0,0,1,0,1.3229167,0,1 @ F,0,0,1,0,1.3229167,0,1 @ F,0,0,1,0,1.3229167,0,1"
       unit="px"
       method="auto"
       mode="F"
       radius="5"
       chamfer_steps="1"
       flexible="false"
       use_knot_distance="true"
       apply_no_radius="true"
       apply_with_radius="true"
       only_selected="false"
       hide_knots="false" />
    <inkscape:path-effect
       effect="fillet_chamfer"
       id="path-effect1205"
       is_visible="true"
       lpeversion="1"
       nodesatellites_param="F,0,0,1,0,1.3229167,0,1 @ F,0,0,1,0,1.3229167,0,1 @ F,0,0,1,0,1.3229167,0,1 @ F,0,0,1,0,1.3229167,0,1 @ F,0,0,1,0,1.3229167,0,1 @ F,0,0,1,0,1.3229167,0,1 @ F,0,0,1,0,1.3229167,0,1 @ F,0,0,1,0,1.3229167,0,1"
       unit="px"
       method="auto"
       mode="F"
       radius="5"
       chamfer_steps="1"
       flexible="false"
       use_knot_distance="true"
       apply_no_radius="true"
       apply_with_radius="true"
       only_selected="false"
       hide_knots="false" />
    <inkscape:path-effect
       effect="fillet_chamfer"
       id="path-effect1103"
       is_visible="true"
       lpeversion="1"
       nodesatellites_param="F,0,0,1,0,2.6458333,0,1 @ F,0,0,1,0,2.6458333,0,1 @ F,0,0,1,0,2.6458333,0,1 @ F,0,0,1,0,2.6458333,0,1 @ F,0,0,1,0,2.6458333,0,1 @ F,0,0,1,0,2.6458333,0,1 @ F,0,0,1,0,2.6458333,0,1 @ F,0,0,1,0,2.6458333,0,1 @ F,0,0,1,0,2.6458333,0,1 @ F,0,0,1,0,2.6458333,0,1 @ F,0,0,1,0,2.6458333,0,1 @ F,0,0,1,0,2.6458333,0,1"
       unit="px"
       method="auto"
       mode="F"
       radius="10"
       chamfer_steps="1"
       flexible="false"
       use_knot_distance="true"
       apply_no_radius="true"
       apply_with_radius="true"
       only_selected="false"
       hide_knots="false" />
    <inkscape:path-effect
       effect="fillet_chamfer"
       id="path-effect1010"
       is_visible="true"
       lpeversion="1"
       nodesatellites_param="F,0,0,1,0,2.6458333,0,1 @ F,0,0,1,0,2.6458333,0,1 @ F,0,0,1,0,2.6458333,0,1 @ F,0,0,1,0,2.6458333,0,1"
       unit="px"
       method="auto"
       mode="F"
       radius="10"
       chamfer_steps="1"
       flexible="false"
       use_knot_distance="true"
       apply_no_radius="true"
       apply_with_radius="true"
       only_selected="false"
       hide_knots="false" />
    <inkscape:path-effect
       effect="fillet_chamfer"
       id="path-effect951"
       is_visible="true"
       lpeversion="1"
       nodesatellites_param="F,0,0,1,0,2.6458333,0,1 @ F,0,0,1,0,2.6458333,0,1 @ F,0,0,1,0,2.6458333,0,1 @ F,0,0,1,0,2.6458333,0,1 @ F,0,0,1,0,2.6458333,0,1 @ F,0,0,1,0,2.6458333,0,1 @ F,0,0,1,0,2.6458333,0,1 @ F,0,0,1,0,2.6458333,0,1"
       unit="px"
       method="auto"
       mode="F"
       radius="10"
       chamfer_steps="1"
       flexible="false"
       use_knot_distance="true"
       apply_no_radius="true"
       apply_with_radius="true"
       only_selected="false"
       hide_knots="false" />
    <inkscape:path-effect
       effect="fillet_chamfer"
       id="path-effect898"
       is_visible="true"
       lpeversion="1"
       nodesatellites_param="F,0,0,1,0,2.6458333,0,1 @ F,0,0,1,0,2.6458333,0,1 @ F,0,0,1,0,2.6458333,0,1 @ F,0,0,1,0,2.6458333,0,1 @ F,0,0,1,0,2.6458333,0,1 @ F,0,0,1,0,2.6458333,0,1 @ F,0,0,1,0,2.6458333,0,1 @ F,0,0,1,0,2.6458333,0,1"
       unit="px"
       method="auto"
       mode="F"
       radius="10"
       chamfer_steps="1"
       flexible="false"
       use_knot_distance="true"
       apply_no_radius="true"
       apply_with_radius="true"
       only_selected="false"
       hide_knots="false" />
    <inkscape:path-effect
       effect="fillet_chamfer"
       id="path-effect1205-3"
       is_visible="true"
       lpeversion="1"
       nodesatellites_param="F,0,0,1,0,1.3229167,0,1 @ F,0,0,1,0,1.3229167,0,1 @ F,0,0,1,0,1.3229167,0,1 @ F,0,0,1,0,1.3229167,0,1 @ F,0,0,1,0,1.3229167,0,1 @ F,0,0,1,0,1.3229167,0,1 @ F,0,0,1,0,1.3229167,0,1 @ F,0,0,1,0,1.3229167,0,1"
       unit="px"
       method="auto"
       mode="F"
       radius="5"
       chamfer_steps="1"
       flexible="false"
       use_knot_distance="true"
       apply_no_radius="true"
       apply_with_radius="true"
       only_selected="false"
       hide_knots="false" />
    <inkscape:path-effect
       effect="fillet_chamfer"
       id="path-effect1297-6"
       is_visible="true"
       lpeversion="1"
       nodesatellites_param="F,0,0,1,0,1.3229167,0,1 @ F,0,0,1,0,1.3229167,0,1 @ F,0,0,1,0,1.3229167,0,1 @ F,0,0,1,0,1.3229167,0,1"
       unit="px"
       method="auto"
       mode="F"
       radius="5"
       chamfer_steps="1"
       flexible="false"
       use_knot_distance="true"
       apply_no_radius="true"
       apply_with_radius="true"
       only_selected="false"
       hide_knots="false" />
    <inkscape:path-effect
       effect="fillet_chamfer"
       id="path-effect1389-7"
       is_visible="true"
       lpeversion="1"
       nodesatellites_param="F,0,0,1,0,1.3229167,0,1 @ F,0,0,1,0,1.3229167,0,1 @ F,0,0,1,0,1.3229167,0,1 @ F,0,0,1,0,1.3229167,0,1 @ F,0,0,1,0,1.3229167,0,1 @ F,0,0,1,0,1.3229167,0,1 @ F,0,0,1,0,1.3229167,0,1 @ F,0,0,1,0,1.3229167,0,1 @ F,0,0,1,0,1.3229167,0,1 @ F,0,0,1,0,1.3229167,0,1 @ F,0,0,1,0,1.3229167,0,1 @ F,0,0,1,0,1.3229167,0,1"
       unit="px"
       method="auto"
       mode="F"
       radius="5"
       chamfer_steps="1"
       flexible="false"
       use_knot_distance="true"
       apply_no_radius="true"
       apply_with_radius="true"
       only_selected="false"
       hide_knots="false" />
    <inkscape:path-effect
       effect="fillet_chamfer"
       id="path-effect1205-6"
       is_visible="true"
       lpeversion="1"
       nodesatellites_param="F,0,0,1,0,1.3229167,0,1 @ F,0,0,1,0,1.3229167,0,1 @ F,0,0,1,0,1.3229167,0,1 @ F,0,0,1,0,1.3229167,0,1 @ F,0,0,1,0,1.3229167,0,1 @ F,0,0,1,0,1.3229167,0,1 @ F,0,0,1,0,1.3229167,0,1 @ F,0,0,1,0,1.3229167,0,1"
       unit="px"
       method="auto"
       mode="F"
       radius="5"
       chamfer_steps="1"
       flexible="false"
       use_knot_distance="true"
       apply_no_radius="true"
       apply_with_radius="true"
       only_selected="false"
       hide_knots="false" />
    <inkscape:path-effect
       effect="fillet_chamfer"
       id="path-effect1297-2"
       is_visible="true"
       lpeversion="1"
       nodesatellites_param="F,0,0,1,0,1.3229167,0,1 @ F,0,0,1,0,1.3229167,0,1 @ F,0,0,1,0,1.3229167,0,1 @ F,0,0,1,0,1.3229167,0,1"
       unit="px"
       method="auto"
       mode="F"
       radius="5"
       chamfer_steps="1"
       flexible="false"
       use_knot_distance="true"
       apply_no_radius="true"
       apply_with_radius="true"
       only_selected="false"
       hide_knots="false" />
    <inkscape:path-effect
       effect="fillet_chamfer"
       id="path-effect1389-9"
       is_visible="true"
       lpeversion="1"
       nodesatellites_param="F,0,0,1,0,1.3229167,0,1 @ F,0,0,1,0,1.3229167,0,1 @ F,0,0,1,0,1.3229167,0,1 @ F,0,0,1,0,1.3229167,0,1 @ F,0,0,1,0,1.3229167,0,1 @ F,0,0,1,0,1.3229167,0,1 @ F,0,0,1,0,1.3229167,0,1 @ F,0,0,1,0,1.3229167,0,1 @ F,0,0,1,0,1.3229167,0,1 @ F,0,0,1,0,1.3229167,0,1 @ F,0,0,1,0,1.3229167,0,1 @ F,0,0,1,0,1.3229167,0,1"
       unit="px"
       method="auto"
       mode="F"
       radius="5"
       chamfer_steps="1"
       flexible="false"
       use_knot_distance="true"
       apply_no_radius="true"
       apply_with_radius="true"
       only_selected="false"
       hide_knots="false" />
    <inkscape:path-effect
       effect="fillet_chamfer"
       id="path-effect1205-0"
       is_visible="true"
       lpeversion="1"
       nodesatellites_param="F,0,0,1,0,1.3229167,0,1 @ F,0,0,1,0,1.3229167,0,1 @ F,0,0,1,0,1.3229167,0,1 @ F,0,0,1,0,1.3229167,0,1 @ F,0,0,1,0,1.3229167,0,1 @ F,0,0,1,0,1.3229167,0,1 @ F,0,0,1,0,1.3229167,0,1 @ F,0,0,1,0,1.3229167,0,1"
       unit="px"
       method="auto"
       mode="F"
       radius="5"
       chamfer_steps="1"
       flexible="false"
       use_knot_distance="true"
       apply_no_radius="true"
       apply_with_radius="true"
       only_selected="false"
       hide_knots="false" />
    <inkscape:path-effect
       effect="fillet_chamfer"
       id="path-effect1297-9"
       is_visible="true"
       lpeversion="1"
       nodesatellites_param="F,0,0,1,0,1.3229167,0,1 @ F,0,0,1,0,1.3229167,0,1 @ F,0,0,1,0,1.3229167,0,1 @ F,0,0,1,0,1.3229167,0,1"
       unit="px"
       method="auto"
       mode="F"
       radius="5"
       chamfer_steps="1"
       flexible="false"
       use_knot_distance="true"
       apply_no_radius="true"
       apply_with_radius="true"
       only_selected="false"
       hide_knots="false" />
    <inkscape:path-effect
       effect="fillet_chamfer"
       id="path-effect1389-3"
       is_visible="true"
       lpeversion="1"
       nodesatellites_param="F,0,0,1,0,1.3229167,0,1 @ F,0,0,1,0,1.3229167,0,1 @ F,0,0,1,0,1.3229167,0,1 @ F,0,0,1,0,1.3229167,0,1 @ F,0,0,1,0,1.3229167,0,1 @ F,0,0,1,0,1.3229167,0,1 @ F,0,0,1,0,1.3229167,0,1 @ F,0,0,1,0,1.3229167,0,1 @ F,0,0,1,0,1.3229167,0,1 @ F,0,0,1,0,1.3229167,0,1 @ F,0,0,1,0,1.3229167,0,1 @ F,0,0,1,0,1.3229167,0,1"
       unit="px"
       method="auto"
       mode="F"
       radius="5"
       chamfer_steps="1"
       flexible="false"
       use_knot_distance="true"
       apply_no_radius="true"
       apply_with_radius="true"
       only_selected="false"
       hide_knots="false" />
    <inkscape:path-effect
       effect="fillet_chamfer"
       id="path-effect1297-9-0"
       is_visible="true"
       lpeversion="1"
       nodesatellites_param="F,0,0,1,0,3.9687499,0,1 @ F,0,0,1,0,3.9687499,0,1 @ F,0,0,1,0,3.9687499,0,1 @ F,0,0,1,0,3.9687499,0,1"
       unit="px"
       method="auto"
       mode="F"
       radius="15"
       chamfer_steps="1"
       flexible="false"
       use_knot_distance="true"
       apply_no_radius="true"
       apply_with_radius="true"
       only_selected="false"
       hide_knots="false" />
    <inkscape:path-effect
       effect="fillet_chamfer"
       id="path-effect385-3"
       is_visible="true"
       lpeversion="1"
       nodesatellites_param="F,0,0,1,0,0,0,1 @ F,0,0,1,0,0,0,1 @ F,0,0,1,0,0,0,1 @ F,0,0,1,0,0,0,1 @ F,0,0,1,0,0,0,1 @ F,0,0,1,0,0,0,1"
       unit="px"
       method="auto"
       mode="F"
       radius="0"
       chamfer_steps="1"
       flexible="false"
       use_knot_distance="true"
       apply_no_radius="true"
       apply_with_radius="true"
       only_selected="false"
       hide_knots="false" />
  </defs>
  <g
     inkscape:label="Layer 1"
     inkscape:groupmode="layer"
     id="layer1">
    <path
       style="fill:#dc8fd3;stroke:#000000;stroke-width:1.165;stroke-linecap:round;stroke-linejoin:round;paint-order:markers fill stroke;fill-opacity:1"
       d="m 10.583331,157.42709 h 37.041666 a 1.3229167,1.3229167 45 0 1 1.322917,1.32292 v 10.58333 a 1.3229167,1.3229167 135 0 1 -1.322917,1.32292 H 23.812501 a 1.3229167,1.3229167 135 0 0 -1.322917,1.32292 v 10.58332 a 1.3229167,1.3229167 45 0 0 1.322917,1.32292 h 23.812496 a 1.3229167,1.3229167 45 0 1 1.322917,1.32292 v 10.58332 a 1.3229167,1.3229167 135 0 1 -1.322917,1.32292 H 10.583331 a 1.3229167,1.3229167 45 0 1 -1.3229166,-1.32292 l 0,-37.04165 a 1.3229167,1.3229167 135 0 1 1.3229166,-1.32292 z"
       id="path1203"
       inkscape:path-effect="#path-effect1205"
       inkscape:original-d="M 9.2604144,157.42709 H 48.947914 v 13.22917 h -26.45833 v 13.22916 h 26.45833 v 13.22916 H 9.2604144 Z"
       inkscape:export-filename="blocks/statement-yellow-block.png"
       inkscape:export-xdpi="96"
       inkscape:export-ydpi="96" />
    <path
       style="fill:#dc8fd3;stroke:#000000;stroke-width:1.165;stroke-linecap:round;stroke-linejoin:round;paint-order:markers fill stroke;fill-opacity:1"
       d="m 103.18751,157.4271 37.04166,0 a 1.3229167,1.3229167 45 0 1 1.32292,1.32292 v 10.58333 a 1.3229167,1.3229167 135 0 1 -1.32292,1.32292 h -37.04166 a 1.3229167,1.3229167 45 0 1 -1.32292,-1.32292 l 0,-10.58333 a 1.3229167,1.3229167 135 0 1 1.32292,-1.32292 z"
       id="path1295"
       inkscape:path-effect="#path-effect1297"
       inkscape:original-d="m 101.86459,157.4271 h 39.6875 v 13.22917 h -39.6875 z"
       inkscape:export-filename="blocks/function-yellow-block.png"
       inkscape:export-xdpi="96"
       inkscape:export-ydpi="96" />
    <path
       style="fill:#dc8fd3;stroke:#000000;stroke-width:1.165;stroke-linecap:round;stroke-linejoin:round;paint-order:markers fill stroke;fill-opacity:1"
       d="m 56.885418,157.42709 h 37.041661 a 1.3229167,1.3229167 45 0 1 1.322917,1.32292 v 10.58333 a 1.3229167,1.3229167 135 0 1 -1.322917,1.32292 l -23.812495,0 a 1.3229167,1.3229167 135 0 0 -1.322917,1.32292 v 10.58333 a 1.3229167,1.3229167 45 0 0 1.322917,1.32292 h 23.812495 a 1.3229167,1.3229167 45 0 1 1.322917,1.32292 v 10.58332 a 1.3229167,1.3229167 135 0 1 -1.322917,1.32292 H 70.114584 a 1.3229167,1.3229167 135 0 0 -1.322917,1.32292 v 10.58332 a 1.3229167,1.3229167 45 0 0 1.322917,1.32292 h 23.812495 a 1.3229167,1.3229167 45 0 1 1.322917,1.32292 V 222.25 a 1.3229167,1.3229167 135 0 1 -1.322917,1.32292 H 56.885418 A 1.3229167,1.3229167 45 0 1 55.562501,222.25 v -63.49999 a 1.3229167,1.3229167 135 0 1 1.322917,-1.32292 z"
       id="path1387"
       inkscape:path-effect="#path-effect1389"
       inkscape:original-d="m 55.562501,157.42709 h 39.687495 v 13.22917 H 68.791667 v 13.22917 h 26.458329 v 13.22916 H 68.791667 v 13.22916 h 26.458329 v 13.22917 H 55.562501 Z" />
    <path
       style="fill:#f2ca79;stroke:#000000;stroke-width:1.165;stroke-linecap:round;stroke-linejoin:round;paint-order:markers fill stroke"
       d="m 10.583335,227.54167 h 37.041666 a 1.3229167,1.3229167 45 0 1 1.322917,1.32292 v 10.58333 a 1.3229167,1.3229167 135 0 1 -1.322917,1.32292 H 23.812505 a 1.3229167,1.3229167 135 0 0 -1.322917,1.32292 v 10.58332 A 1.3229167,1.3229167 45 0 0 23.812505,254 l 23.812496,0 a 1.3229167,1.3229167 45 0 1 1.322917,1.32292 l 0,10.58332 a 1.3229167,1.3229167 135 0 1 -1.322917,1.32292 H 10.583335 a 1.3229167,1.3229167 45 0 1 -1.3229171,-1.32292 l 0,-37.04165 a 1.3229167,1.3229167 135 0 1 1.3229171,-1.32292 z"
       id="path1203-6"
       inkscape:path-effect="#path-effect1205-0"
       inkscape:original-d="M 9.2604179,227.54167 H 48.947918 v 13.22917 H 22.489588 V 254 h 26.45833 v 13.22916 H 9.2604179 Z"
       inkscape:export-filename="blocks/statement-yellow-block.png"
       inkscape:export-xdpi="96"
       inkscape:export-ydpi="96" />
    <path
       style="fill:#f2ca79;stroke:#000000;stroke-width:1.165;stroke-linecap:round;stroke-linejoin:round;paint-order:markers fill stroke"
       d="m 107.15626,231.51042 h 37.04165 a 1.3229167,1.3229167 45 0 1 1.32292,1.32292 v 10.58333 a 1.3229167,1.3229167 135 0 1 -1.32292,1.32292 h -37.04165 a 1.3229167,1.3229167 45 0 1 -1.32292,-1.32292 l 0,-10.58333 a 1.3229167,1.3229167 135 0 1 1.32292,-1.32292 z"
       id="path1295-0"
       inkscape:path-effect="#path-effect1297-9"
       inkscape:original-d="m 105.83334,231.51042 h 39.68749 v 13.22917 h -39.68749 z"
       inkscape:export-filename="blocks/function-yellow-block.png"
       inkscape:export-xdpi="96"
       inkscape:export-ydpi="96" />
    <path
       style="fill:#b5b5b5;stroke:#000000;stroke-width:1.165;stroke-linecap:round;stroke-linejoin:round;paint-order:markers fill stroke;fill-opacity:1"
       d="m 105.83334,227.54168 h 31.75 a 3.9687499,3.9687499 45 0 1 3.96875,3.96875 v 5.29167 a 3.9687499,3.9687499 135 0 1 -3.96875,3.96875 h -31.75 a 3.9687499,3.9687499 45 0 1 -3.96875,-3.96875 l 0,-5.29167 a 3.9687499,3.9687499 135 0 1 3.96875,-3.96875 z"
       id="path1295-0-2"
       inkscape:path-effect="#path-effect1297-9-0"
       inkscape:original-d="m 101.86459,227.54168 h 39.6875 v 13.22917 h -39.6875 z"
       inkscape:export-filename="blocks/function-yellow-block.png"
       inkscape:export-xdpi="96"
       inkscape:export-ydpi="96"
       transform="translate(8.3370577,38.903325)" />
    <path
       style="fill:#f2ca79;stroke:#000000;stroke-width:1.165;stroke-linecap:round;stroke-linejoin:round;paint-order:markers fill stroke"
       d="M 56.885422,227.54167 H 93.927083 A 1.3229167,1.3229167 45 0 1 95.25,228.86459 v 10.58333 a 1.3229167,1.3229167 135 0 1 -1.322917,1.32292 H 70.114588 a 1.3229167,1.3229167 135 0 0 -1.322917,1.32292 v 10.58333 a 1.3229167,1.3229167 45 0 0 1.322917,1.32292 H 93.927083 A 1.3229167,1.3229167 45 0 1 95.25,255.32293 v 10.58332 a 1.3229167,1.3229167 135 0 1 -1.322917,1.32292 H 70.114588 a 1.3229167,1.3229167 135 0 0 -1.322917,1.32292 v 10.58332 a 1.3229167,1.3229167 45 0 0 1.322917,1.32292 H 93.927083 A 1.3229167,1.3229167 45 0 1 95.25,281.78125 v 10.58333 a 1.3229167,1.3229167 135 0 1 -1.322917,1.32292 H 56.885422 a 1.3229167,1.3229167 45 0 1 -1.322917,-1.32292 v -63.49999 a 1.3229167,1.3229167 135 0 1 1.322917,-1.32292 z"
       id="path1387-6"
       inkscape:path-effect="#path-effect1389-3"
       inkscape:original-d="M 55.562505,227.54167 H 95.25 v 13.22917 H 68.791671 v 13.22917 H 95.25 v 13.22916 H 68.791671 v 13.22916 H 95.25 V 293.6875 H 55.562505 Z" />
    <path
       style="fill:#7bf279;stroke:#000000;stroke-width:1.165;stroke-linecap:round;stroke-linejoin:round;paint-order:markers fill stroke;fill-opacity:1"
       d="m 13.229166,10.583335 h 37.041666 a 1.3229167,1.3229167 45 0 1 1.322917,1.322917 v 10.583336 a 1.3229167,1.3229167 135 0 1 -1.322917,1.322917 H 26.458336 a 1.3229167,1.3229167 135 0 0 -1.322917,1.322917 v 10.583326 a 1.3229167,1.3229167 45 0 0 1.322917,1.322917 h 23.812496 a 1.3229167,1.3229167 45 0 1 1.322917,1.322917 v 10.583326 a 1.3229167,1.3229167 135 0 1 -1.322917,1.322917 H 13.229166 a 1.3229167,1.3229167 45 0 1 -1.322917,-1.322917 l 0,-37.041656 a 1.3229167,1.3229167 135 0 1 1.322917,-1.322917 z"
       id="path1203-5"
       inkscape:path-effect="#path-effect1205-3"
       inkscape:original-d="m 11.906249,10.583335 h 39.6875 v 13.22917 h -26.45833 v 13.22916 h 26.45833 v 13.22916 h -39.6875 z"
       inkscape:export-filename="blocks/statement-yellow-block.png"
       inkscape:export-xdpi="96"
       inkscape:export-ydpi="96" />
    <path
       style="fill:#7bf279;stroke:#000000;stroke-width:1.165;stroke-linecap:round;stroke-linejoin:round;paint-order:markers fill stroke;fill-opacity:1"
       d="M 105.83334,10.583345 H 142.875 a 1.3229167,1.3229167 45 0 1 1.32292,1.322917 v 10.583336 a 1.3229167,1.3229167 135 0 1 -1.32292,1.322917 h -37.04166 a 1.3229167,1.3229167 45 0 1 -1.32292,-1.322917 l 0,-10.583336 a 1.3229167,1.3229167 135 0 1 1.32292,-1.322917 z"
       id="path1295-3"
       inkscape:path-effect="#path-effect1297-6"
       inkscape:original-d="m 104.51042,10.583345 h 39.6875 v 13.22917 h -39.6875 z"
       inkscape:export-filename="blocks/function-yellow-block.png"
       inkscape:export-xdpi="96"
       inkscape:export-ydpi="96" />
    <path
       style="fill:#7bf279;stroke:#000000;stroke-width:1.165;stroke-linecap:round;stroke-linejoin:round;paint-order:markers fill stroke;fill-opacity:1"
       d="m 59.531253,10.583335 h 37.041661 a 1.3229167,1.3229167 45 0 1 1.322917,1.322917 v 10.583336 a 1.3229167,1.3229167 135 0 1 -1.322917,1.322917 H 72.760419 a 1.3229167,1.3229167 135 0 0 -1.322917,1.322917 v 10.583336 a 1.3229167,1.3229167 45 0 0 1.322917,1.322917 h 23.812495 a 1.3229167,1.3229167 45 0 1 1.322917,1.322917 v 10.583326 a 1.3229167,1.3229167 135 0 1 -1.322917,1.322917 H 72.760419 a 1.3229167,1.3229167 135 0 0 -1.322917,1.322917 l 0,10.583326 a 1.3229167,1.3229167 45 0 0 1.322917,1.322917 l 23.812495,0 a 1.3229167,1.3229167 45 0 1 1.322917,1.322917 v 10.583336 a 1.3229167,1.3229167 135 0 1 -1.322917,1.322917 H 59.531253 A 1.3229167,1.3229167 45 0 1 58.208336,75.406248 V 11.906252 a 1.3229167,1.3229167 135 0 1 1.322917,-1.322917 z"
       id="path1387-5"
       inkscape:path-effect="#path-effect1389-7"
       inkscape:original-d="m 58.208336,10.583335 h 39.687495 v 13.22917 H 71.437502 v 13.22917 h 26.458329 v 13.22916 H 71.437502 v 13.22916 h 26.458329 v 13.22917 H 58.208336 Z" />
    <path
       style="fill:#79cbf2;stroke:#000000;stroke-width:1.165;stroke-linecap:round;stroke-linejoin:round;paint-order:markers fill stroke;fill-opacity:1"
       d="m 11.906249,83.343749 h 37.041666 a 1.3229167,1.3229167 45 0 1 1.322917,1.322917 v 10.583336 a 1.3229167,1.3229167 135 0 1 -1.322917,1.322917 H 25.135419 a 1.3229167,1.3229167 135 0 0 -1.322917,1.322917 l 0,10.583324 a 1.3229167,1.3229167 45 0 0 1.322917,1.32292 h 23.812496 a 1.3229167,1.3229167 45 0 1 1.322917,1.32292 v 10.58332 a 1.3229167,1.3229167 135 0 1 -1.322917,1.32292 H 11.906249 a 1.3229167,1.3229167 45 0 1 -1.322917,-1.32292 l 0,-37.041654 a 1.3229167,1.3229167 135 0 1 1.322917,-1.322917 z"
       id="path1203-1"
       inkscape:path-effect="#path-effect1205-6"
       inkscape:original-d="m 10.583332,83.343749 h 39.6875 v 13.22917 h -26.45833 v 13.229161 h 26.45833 v 13.22916 h -39.6875 z"
       inkscape:export-filename="blocks/statement-yellow-block.png"
       inkscape:export-xdpi="96"
       inkscape:export-ydpi="96" />
    <path
       style="fill:#79cbf2;stroke:#000000;stroke-width:1.165;stroke-linecap:round;stroke-linejoin:round;paint-order:markers fill stroke;fill-opacity:1"
       d="m 104.51042,83.343759 h 37.04167 a 1.3229167,1.3229167 45 0 1 1.32292,1.322917 v 10.583336 a 1.3229167,1.3229167 135 0 1 -1.32292,1.322917 H 104.51042 A 1.3229167,1.3229167 45 0 1 103.1875,95.250012 V 84.666676 a 1.3229167,1.3229167 135 0 1 1.32292,-1.322917 z"
       id="path1295-2"
       inkscape:path-effect="#path-effect1297-2"
       inkscape:original-d="m 103.1875,83.343759 h 39.68751 v 13.22917 H 103.1875 Z"
       inkscape:export-filename="blocks/function-yellow-block.png"
       inkscape:export-xdpi="96"
       inkscape:export-ydpi="96" />
    <path
       style="fill:#79cbf2;stroke:#000000;stroke-width:1.165;stroke-linecap:round;stroke-linejoin:round;paint-order:markers fill stroke;fill-opacity:1"
       d="m 58.208336,83.343749 h 37.041661 a 1.3229167,1.3229167 45 0 1 1.322917,1.322917 v 10.583336 a 1.3229167,1.3229167 135 0 1 -1.322917,1.322917 l -23.812495,0 a 1.3229167,1.3229167 135 0 0 -1.322917,1.322917 v 10.583334 a 1.3229167,1.3229167 45 0 0 1.322917,1.32292 h 23.812495 a 1.3229167,1.3229167 45 0 1 1.322917,1.32292 v 10.58332 a 1.3229167,1.3229167 135 0 1 -1.322917,1.32292 H 71.437502 a 1.3229167,1.3229167 135 0 0 -1.322917,1.32292 v 10.58332 a 1.3229167,1.3229167 45 0 0 1.322917,1.32292 l 23.812495,0 a 1.3229167,1.3229167 45 0 1 1.322917,1.32292 v 10.58333 a 1.3229167,1.3229167 135 0 1 -1.322917,1.32292 H 58.208336 a 1.3229167,1.3229167 45 0 1 -1.322917,-1.32292 V 84.666666 a 1.3229167,1.3229167 135 0 1 1.322917,-1.322917 z"
       id="path1387-7"
       inkscape:path-effect="#path-effect1389-9"
       inkscape:original-d="m 56.885419,83.343749 h 39.687495 v 13.22917 H 70.114585 v 13.229171 h 26.458329 v 13.22916 H 70.114585 v 13.22916 h 26.458329 v 13.22917 H 56.885419 Z" />
    <path
       style="fill:#f2ca79;stroke:#000000;stroke-width:0.565;stroke-linecap:round;stroke-linejoin:round;paint-order:markers fill stroke;fill-opacity:1;stroke-dasharray:none"
       d="m 14.552083,212.98959 3.968751,2.64583 -3.968751,2.64583 z"
       id="path316"
       inkscape:export-filename="path316.png"
       inkscape:export-xdpi="96"
       inkscape:export-ydpi="96" />
    <path
       style="fill:#dc8fd3;fill-opacity:1;stroke:#000000;stroke-width:0.565;stroke-linecap:round;stroke-linejoin:round;paint-order:markers fill stroke;stroke-dasharray:none"
       d="m 21.166666,212.98959 3.968752,2.64583 -3.968752,2.64583 z"
       id="path316-3" />
    <path
       style="fill:#79cbf2;fill-opacity:1;stroke:#000000;stroke-width:0.565;stroke-linecap:round;stroke-linejoin:round;paint-order:markers fill stroke;stroke-dasharray:none"
       d="m 27.78125,212.98959 3.968751,2.64583 -3.968751,2.64583 z"
       id="path316-6" />
    <path
       style="fill:#7bf279;fill-opacity:1;stroke:#000000;stroke-width:0.565;stroke-linecap:round;stroke-linejoin:round;paint-order:markers fill stroke;stroke-dasharray:none"
       d="m 34.395833,212.98959 3.968751,2.64583 -3.968751,2.64583 z"
       id="path316-7"
       inkscape:export-filename="path316-7.png"
       inkscape:export-xdpi="96"
       inkscape:export-ydpi="96" />
    <path
       style="fill:#ea3c2a;fill-opacity:1;stroke:#000000;stroke-width:0.565;stroke-linecap:round;stroke-linejoin:round;stroke-dasharray:none;paint-order:markers fill stroke"
       d="m 14.552084,206.37501 3.968751,2.64583 -3.968751,2.64583 z"
       id="path316-7-3"
       inkscape:export-filename="path316-7-3.png"
       inkscape:export-xdpi="96"
       inkscape:export-ydpi="96" />
    <path
       style="fill:#dc8fd3;stroke:#000000;stroke-width:0.552835;stroke-linecap:round;stroke-linejoin:round;paint-order:markers fill stroke"
       d="m 117.3721,254.44099 2.79283,-3.52777 h 8.37848 l 2.79282,3.52777 -2.79282,3.52777 h -8.37848 z"
       id="path377"
       inkscape:path-effect="#path-effect379"
       inkscape:original-d="m 117.3721,254.44099 2.79283,-3.52777 h 8.37848 l 2.79282,3.52777 -2.79282,3.52777 h -8.37848 z" />
    <path
       style="fill:#ffffff;stroke:#c5a6f5;stroke-width:0.683;stroke-linecap:round;stroke-linejoin:round;stroke-dasharray:none;paint-order:markers fill stroke;fill-opacity:1;stroke-opacity:1"
       d="m 115.8354,238.03681 3.40751,-4.40972 h 10.22251 l 3.40749,4.40972 -3.40749,4.40972 h -10.22251 z"
       id="path381-6" />
    <path
       style="fill:#dc8fd3;stroke:#000000;stroke-width:0.552835;stroke-linecap:round;stroke-linejoin:round;paint-order:markers fill stroke"
       d="m 117.3721,238.03682 2.79283,-3.52777 h 8.37848 l 2.79282,3.52777 -2.79282,3.52777 h -8.37848 z"
       id="path381"
       inkscape:path-effect="#path-effect385"
       inkscape:original-d="m 117.3721,238.03682 2.79283,-3.52777 h 8.37848 l 2.79282,3.52777 -2.79282,3.52777 h -8.37848 z" />
  </g>
</svg>
